<svg xmlns="http://www.w3.org/2000/svg" xmlns:xlink="http://www.w3.org/1999/xlink" viewBox="0,0,256,256" width="50px" height="50px" fill-rule="nonzero"><g fill="#ffffff" fill-rule="nonzero" stroke="none" stroke-width="1" stroke-linecap="butt" stroke-linejoin="miter" stroke-miterlimit="10" stroke-dasharray="" stroke-dashoffset="0" font-family="none" font-weight="none" font-size="none" text-anchor="none" style="mix-blend-mode: normal"><g transform="scale(5.12,5.12)"><path d="M25,0c-1.84359,0 -3.34052,1.29364 -3.79687,3h-3.20312h-9c-1.64497,0 -3,1.35503 -3,3v39c0,1.64497 1.35503,3 3,3h32c1.64497,0 3,-1.35503 3,-3v-39c0,-1.64497 -1.35503,-3 -3,-3h-9h-3.20312c-0.45635,-1.70636 -1.95328,-3 -3.79687,-3zM25,2c1.11667,0 2,0.88333 2,2c0.00006,0.55226 0.44774,0.99994 1,1h3v2h-12v-2h3c0.55226,-0.00006 0.99994,-0.44774 1,-1c0,-1.11667 0.88333,-2 2,-2zM9,5h8v3c0.00006,0.55226 0.44774,0.99994 1,1h14c0.55226,-0.00006 0.99994,-0.44774 1,-1v-3h8c0.56503,0 1,0.43497 1,1v39c0,0.56503 -0.43497,1 -1,1h-32c-0.56503,0 -1,-0.43497 -1,-1v-39c0,-0.56503 0.43497,-1 1,-1zM33.99609,19.98828c-0.2947,0.00385 -0.5727,0.13749 -0.75977,0.36523l-10.34961,12.23242l-6.23633,-5.3457c-0.41961,-0.3592 -1.05096,-0.31023 -1.41016,0.10938c-0.3592,0.41961 -0.31023,1.05096 0.10937,1.41016l7,6c0.20221,0.17326 0.46516,0.25873 0.73059,0.23746c0.26543,-0.02126 0.51143,-0.1475 0.68347,-0.35075l11,-13c0.25995,-0.29737 0.32053,-0.71989 0.15461,-1.07833c-0.16592,-0.35844 -0.52726,-0.58565 -0.92219,-0.57988z"></path></g></g></svg>