<svg xmlns="http://www.w3.org/2000/svg" xmlns:xlink="http://www.w3.org/1999/xlink" viewBox="0,0,256,256" width="50px" height="50px" fill-rule="nonzero"><g fill="#ffffff" fill-rule="nonzero" stroke="none" stroke-width="1" stroke-linecap="butt" stroke-linejoin="miter" stroke-miterlimit="10" stroke-dasharray="" stroke-dashoffset="0" font-family="none" font-weight="none" font-size="none" text-anchor="none" style="mix-blend-mode: normal"><g transform="scale(5.12,5.12)"><path d="M33.8125,1c-0.47656,0.08984 -0.82031,0.51172 -0.8125,1v1h-17c-0.03125,0 -0.0625,0 -0.09375,0c-0.51562,0.04688 -0.91016,0.48047 -0.90625,1v7c0,0.55078 0.44922,1 1,1h3.09375c0.19141,1.15234 0.71875,2.16797 1.46875,3h-4.5625c-0.03125,0 -0.0625,0 -0.09375,0c-0.03125,0 -0.0625,0 -0.09375,0c-0.47656,0.08984 -0.82031,0.51172 -0.8125,1v4c0,0.55078 0.44922,1 1,1h0.375l-11.28125,22.5625c-0.15234,0.3125 -0.13281,0.67969 0.05469,0.97266c0.18359,0.28906 0.50391,0.46875 0.85156,0.46484h3c0.36719,-0.00391 0.70313,-0.20703 0.875,-0.53125l12.1875,-22.5l0.9375,25.0625c0.01563,0.53906 0.46094,0.96875 1,0.96875h2c0.53906,0 0.98438,-0.42969 1,-0.96875l0.9375,-25.09375l12.1875,22.53125c0.17188,0.32422 0.50781,0.52734 0.875,0.53125h3c0.34766,0.00391 0.66797,-0.17578 0.85156,-0.46484c0.1875,-0.29297 0.20703,-0.66016 0.05469,-0.97266l-11.28125,-22.5625h0.375c0.55078,0 1,-0.44922 1,-1v-4c0,-0.55078 -0.44922,-1 -1,-1h-4.5625c0.75,-0.83203 1.27734,-1.84766 1.46875,-3h2.09375v1c0,0.55078 0.44922,1 1,1h3c0.55078,0 1,-0.44922 1,-1v-11c0,-0.55078 -0.44922,-1 -1,-1h-3c-0.03125,0 -0.0625,0 -0.09375,0c-0.03125,0 -0.0625,0 -0.09375,0zM35,3h1v9h-1v-0.84375c0.00391,-0.05078 0.00391,-0.10547 0,-0.15625v-7c0,-0.03125 0,-0.0625 0,-0.09375zM17,5h16v5h-12.8125c-0.13281,-0.02734 -0.27344,-0.02734 -0.40625,0h-2.78125zM21.15625,12h7.6875c-0.44141,1.73047 -1.97266,3 -3.84375,3c-1.87109,0 -3.40234,-1.26953 -3.84375,-3zM17,17h16v2h-16zM18.625,21h1.71875l-11.9375,22h-0.78125zM24.03125,21h1.9375l-0.9375,25h-0.0625zM29.65625,21h1.71875l11,22h-0.78125z"></path></g></g></svg>