<svg xmlns="http://www.w3.org/2000/svg" xmlns:xlink="http://www.w3.org/1999/xlink" viewBox="0,0,256,256" width="50px" height="50px" fill-rule="nonzero"><g fill="#ffffff" fill-rule="nonzero" stroke="none" stroke-width="1" stroke-linecap="butt" stroke-linejoin="miter" stroke-miterlimit="10" stroke-dasharray="" stroke-dashoffset="0" font-family="none" font-weight="none" font-size="none" text-anchor="none" style="mix-blend-mode: normal"><g transform="scale(5.12,5.12)"><path d="M25,1c-5.51172,0 -10,4.48828 -10,10c0,4.46484 2.94922,8.25781 7,9.53516v22.71094l3,5.74219l3,-5.74219v-22.71094c4.05078,-1.27734 7,-5.07031 7,-9.53516c0,-5.51172 -4.48828,-10 -10,-10zM25,3c4.42969,0 8,3.57031 8,8c0,4.42969 -3.57031,8 -8,8c-4.42969,0 -8,-3.57031 -8,-8c0,-4.42969 3.57031,-8 8,-8zM25,5c-3.30078,0 -6,2.69922 -6,6c-0.00391,0.35938 0.18359,0.69531 0.49609,0.87891c0.3125,0.17969 0.69531,0.17969 1.00781,0c0.3125,-0.18359 0.5,-0.51953 0.49609,-0.87891c0,-2.21875 1.78125,-4 4,-4c0.35938,0.00391 0.69531,-0.18359 0.87891,-0.49609c0.17969,-0.3125 0.17969,-0.69531 0,-1.00781c-0.18359,-0.3125 -0.51953,-0.5 -0.87891,-0.49609zM24,21h2v21.75391l-1,1.91797l-1,-1.91797z"></path></g></g></svg>