<svg xmlns="http://www.w3.org/2000/svg" xmlns:xlink="http://www.w3.org/1999/xlink" viewBox="0,0,256,256" width="50px" height="50px" fill-rule="nonzero"><g fill="#ffffff" fill-rule="nonzero" stroke="none" stroke-width="1" stroke-linecap="butt" stroke-linejoin="miter" stroke-miterlimit="10" stroke-dasharray="" stroke-dashoffset="0" font-family="none" font-weight="none" font-size="none" text-anchor="none" style="mix-blend-mode: normal"><g transform="scale(5.12,5.12)"><path d="M30.49805,2.99609l-0.67383,4.13867c-0.53663,0.17162 -1.05157,0.3821 -1.54687,0.63477l-3.41406,-2.43945l-3.49023,3.49023l2.40039,3.42969c-0.25846,0.50084 -0.47605,1.02199 -0.65234,1.56641l-4.12109,0.68555v4.93555l4.11523,0.72852c0.17526,0.54323 0.39216,1.06388 0.65039,1.56445l-2.43164,3.40234l3.48828,3.49219l3.4375,-2.40625c0.49749,0.25507 1.01551,0.46905 1.55469,0.64258l0.6875,4.13867h4.93555l0.73633,-4.15039c0.53724,-0.17574 1.05345,-0.39174 1.54883,-0.64844l3.45313,2.42383l3.49414,-3.49414l-2.46875,-3.42969c0.25054,-0.49012 0.46162,-1.00039 0.63281,-1.53125l4.16602,-0.73047v-0.83984v-4.09961l-4.16992,-0.68164c-0.17248,-0.5315 -0.38315,-1.04243 -0.63477,-1.5332l2.42773,-3.46094l-3.49219,-3.49219l-3.41992,2.45703c-0.49404,-0.25457 -1.00853,-0.46867 -1.54492,-0.64258l-0.72656,-4.15039zM21.01563,3.28125c-0.05693,-0.00029 -0.11377,0.00429 -0.16992,0.01367c-4.77659,0.74138 -8.04689,2.89553 -10.12305,5.81445c-2.02631,2.84883 -2.91734,6.3607 -3.33008,9.96875l-4.05078,6.98047l-0.00391,0.00781c-0.68932,1.24046 -0.24955,2.85923 1.00195,3.55469l0.01953,0.00977l3.05664,1.5293l0.98438,7.20898l0.00195,0.01172c0.4289,2.6809 2.77916,4.72444 5.50195,4.61523l3.0957,0.00391v2v1v1h0.83203c0.10799,0.01785 0.21818,0.01785 0.32617,0h0.8418v-1v-1v-4l-5.1543,-0.00391h-0.02148c-1.66521,0.06679 -3.17416,-1.22454 -3.44727,-2.93164l0.00195,0.02344l-1.12305,-8.24414l-3.94336,-1.9707c-0.32849,-0.18254 -0.41525,-0.49444 -0.22656,-0.83398l4.2207,-7.27539l0.02344,-0.21094c0.37793,-3.51434 1.24235,-6.77913 3.02344,-9.2832c1.78109,-2.50408 4.45437,-4.32343 8.80078,-4.99805c0.51931,-0.07386 0.89332,-0.53638 0.85686,-1.05965c-0.03646,-0.52327 -0.471,-0.92946 -0.99554,-0.93058zM32.19922,4.99609h1.56055l0.64063,3.66211l0.63086,0.1582c0.82377,0.2055 1.5981,0.5311 2.30469,0.95898l0.56445,0.3418l3.01758,-2.16992l1.10352,1.10352l-2.14453,3.05859l0.33398,0.55664c0.42372,0.70531 0.74622,1.47316 0.95117,2.29297l0.16016,0.63867l3.67773,0.60156v1.55859l-3.68164,0.64844l-0.15625,0.63086c-0.20286,0.81857 -0.52569,1.58798 -0.94922,2.29297l-0.33789,0.56445l2.17773,3.02539l-1.10352,1.10352l-3.05469,-2.14453l-0.55859,0.33984c-0.7013,0.42684 -1.47913,0.75434 -2.30078,0.96289l-0.625,0.1582l-0.64844,3.66016h-1.56445l-0.60742,-3.65039l-0.63867,-0.1582c-0.82513,-0.20382 -1.60201,-0.52789 -2.3125,-0.95508l-0.55664,-0.33594l-3.03125,2.12305l-1.10547,-1.10547l2.14648,-3.00195l-0.3418,-0.5625c-0.43216,-0.71401 -0.75738,-1.49008 -0.96289,-2.31836l-0.15625,-0.63086l-3.63086,-0.64258v-1.56641l3.63086,-0.60547l0.16016,-0.63477c0.2077,-0.83169 0.53276,-1.61045 0.96289,-2.32227l0.33789,-0.55664l-2.11719,-3.02734l1.10547,-1.10547l3.00781,2.14844l0.5625,-0.33789c0.70694,-0.42434 1.48516,-0.74712 2.31055,-0.94922l0.64258,-0.15625zM33,11.99805c-2.74958,0 -5,2.25042 -5,5c0,2.74958 2.25042,5 5,5c2.74958,0 5,-2.25042 5,-5c0,-2.74958 -2.25042,-5 -5,-5zM33,13.99805c1.6687,0 3,1.3313 3,3c0,1.6687 -1.3313,3 -3,3c-1.6687,0 -3,-1.3313 -3,-3c0,-1.6687 1.3313,-3 3,-3zM39.00391,30.63086c-0.32978,0.00195 -0.6374,0.16636 -0.82227,0.43945c-1.94129,2.77342 -3.16602,6.04217 -3.16602,9.52344v4.40625h-0.01562v2h0.84766c0.10799,0.01785 0.21818,0.01785 0.32617,0h0.82617v-0.8125c0.01109,-0.06187 0.01632,-0.12465 0.01563,-0.1875v-5.40625c0,-3.01273 1.05802,-5.88437 2.80273,-8.37695c0.22045,-0.30501 0.25102,-0.70795 0.0791,-1.04272c-0.17192,-0.33477 -0.51722,-0.54469 -0.89355,-0.54322z"></path></g></g></svg>