<svg xmlns="http://www.w3.org/2000/svg" xmlns:xlink="http://www.w3.org/1999/xlink" viewBox="0,0,256,256" width="50px" height="50px" fill-rule="nonzero"><g fill="#ffffff" fill-rule="nonzero" stroke="none" stroke-width="1" stroke-linecap="butt" stroke-linejoin="miter" stroke-miterlimit="10" stroke-dasharray="" stroke-dashoffset="0" font-family="none" font-weight="none" font-size="none" text-anchor="none" style="mix-blend-mode: normal"><g transform="scale(5.12,5.12)"><path d="M28,2c-4.55347,0 -8.37773,3.02679 -9.5918,7.18164l-5.17773,2.76758l-9.61328,-5.80469c-0.3088,-0.18672 -0.69423,-0.1926 -1.00859,-0.0154c-0.31435,0.1772 -0.50887,0.51001 -0.50899,0.87087v36c0.00031,0.37452 0.20986,0.71748 0.54297,0.88867l10.90039,5.60156c0.29182,0.14967 0.63848,0.14675 0.92773,-0.00781l10.06641,-5.36914l12.85156,5.79883c0.31081,0.13998 0.67152,0.112 0.95703,-0.07422l9.20117,-6c0.2829,-0.18481 0.45334,-0.49998 0.45313,-0.83789v-36c0.00009,-0.27036 -0.10929,-0.52924 -0.3032,-0.71764c-0.19392,-0.1884 -0.45584,-0.29025 -0.72609,-0.28236c-0.18416,0.00533 -0.36328,0.06143 -0.51758,0.16211l-8.46875,5.52344c-0.16703,-5.38566 -4.5573,-9.68555 -9.98437,-9.68555zM28,4c4.46667,0 8,3.53333 8,8c0,3.73415 -2.14744,8.40309 -4.35547,12.05859c-1.8268,3.02437 -3.07493,4.49724 -3.65039,5.21289c-0.57781,-0.70656 -1.81809,-2.14358 -3.64062,-5.14062c-2.20636,-3.62824 -4.35352,-8.288 -4.35352,-12.13086c0,-4.46667 3.53333,-8 8,-8zM28,8c-2.74545,0 -5,2.25455 -5,5c0,2.74546 2.25455,5 5,5c2.74546,0 5,-2.25455 5,-5c0,-2.74545 -2.25455,-5 -5,-5zM4.09961,8.77148l8.58398,5.18359c0.30157,0.18269 0.67707,0.19308 0.98828,0.02734l4.3457,-2.32227c-0.00382,0.1139 -0.01758,0.22499 -0.01758,0.33984c0,4.55714 2.35284,9.39816 4.64648,13.16992c2.29364,3.77176 4.5918,6.47656 4.5918,6.47656c0.19089,0.22469 0.47119,0.3537 0.76601,0.35257c0.29482,-0.00113 0.57413,-0.13229 0.76329,-0.35843c0,0 2.29592,-2.75434 4.58789,-6.54883c1.95335,-3.23384 3.93682,-7.21977 4.48438,-11.0918c0.18015,-0.00745 0.35494,-0.06346 0.50586,-0.16211l7.6543,-4.99219v33.61328l-8.28711,5.4043l-12.80078,-5.77539c-0.28287,-0.12776 -0.60903,-0.11693 -0.88281,0.0293l-10.03711,5.35352l-9.89258,-5.08203zM28,10c1.65454,0 3,1.34545 3,3c0,1.65455 -1.34546,3 -3,3c-1.65454,0 -3,-1.34545 -3,-3c0,-1.65455 1.34546,-3 3,-3z"></path></g></g></svg>