<svg xmlns="http://www.w3.org/2000/svg" xmlns:xlink="http://www.w3.org/1999/xlink" viewBox="0,0,256,256" width="80px" height="80px" fill-rule="nonzero"><g fill="#ffffff" fill-rule="nonzero" stroke="none" stroke-width="1" stroke-linecap="butt" stroke-linejoin="miter" stroke-miterlimit="10" stroke-dasharray="" stroke-dashoffset="0" font-family="none" font-weight="none" font-size="none" text-anchor="none" style="mix-blend-mode: normal"><g transform="scale(3.2,3.2)"><path d="M40.0332,10.25c-0.15614,-0.00521 -0.31133,0.02623 -0.45312,0.0918l-34,15.75c-0.35437,0.1634 -0.58133,0.51798 -0.58133,0.9082c0,0.39022 0.22697,0.74481 0.58133,0.9082l12.07031,5.5918l-12.07031,5.5918c-0.35437,0.1634 -0.58133,0.51798 -0.58133,0.9082c0,0.39022 0.22697,0.74481 0.58133,0.9082l12.07031,5.5918l-12.07031,5.5918c-0.35437,0.1634 -0.58133,0.51798 -0.58133,0.9082c0,0.39022 0.22697,0.74481 0.58133,0.9082l34,15.75c0.26638,0.12324 0.57346,0.12324 0.83984,0l34,-15.75c0.35437,-0.1634 0.58133,-0.51798 0.58133,-0.9082c0,-0.39022 -0.22697,-0.74481 -0.58133,-0.9082l-12.07031,-5.5918l12.07031,-5.5918c0.35437,-0.1634 0.58133,-0.51798 0.58133,-0.9082c0,-0.39022 -0.22697,-0.74481 -0.58133,-0.9082l-12.07031,-5.5918l12.07031,-5.5918c0.35437,-0.1634 0.58133,-0.51798 0.58133,-0.9082c0,-0.39022 -0.22697,-0.74481 -0.58133,-0.9082l-34,-15.75c-0.12147,-0.05616 -0.25297,-0.08738 -0.38672,-0.0918zM40,12.35156l31.61914,14.64844l-12.10156,5.60742l-19.51758,9.04102l-19.4082,-8.99219c-0.07812,-0.0506 -0.16292,-0.09004 -0.25195,-0.11719l-11.95898,-5.53906zM20.03125,34.60352l1.33789,0.61914c-0.23395,0.19021 -0.36958,0.47583 -0.36914,0.77734c0,0.55228 0.44772,1 1,1c0.55228,0 1,-0.44772 1,-1c-0.00057,-0.00717 -0.00122,-0.01433 -0.00195,-0.02148l7.03125,3.25586c0.10816,0.44861 0.50924,0.76496 0.9707,0.76563c0.15607,-0.00026 0.30991,-0.03705 0.44922,-0.10742l2.41406,1.11914c-0.49389,0.06816 -0.86212,0.48971 -0.86328,0.98828c0,0.55228 0.44772,1 1,1c0.55228,0 1,-0.44772 1,-1c-0.0003,-0.18959 -0.05449,-0.37519 -0.15625,-0.53516l4.73633,2.19336c0.26638,0.12324 0.57346,0.12324 0.83984,0l4.73438,-2.19336c-0.10107,0.16017 -0.15458,0.34576 -0.1543,0.53516c0,0.55228 0.44772,1 1,1c0.55228,0 1,-0.44772 1,-1c-0.00005,-0.49867 -0.36748,-0.92108 -0.86133,-0.99023l2.41211,-1.11719c0.13931,0.07037 0.29315,0.10716 0.44922,0.10742c0.46146,-0.00067 0.86255,-0.31701 0.9707,-0.76562l7.0293,-3.25586c-0.00008,0.00716 -0.00008,0.01432 0,0.02148c0,0.55228 0.44772,1 1,1c0.55228,0 1,-0.44772 1,-1c-0.00063,-0.30116 -0.13695,-0.58599 -0.37109,-0.77539l1.33984,-0.62109l3.03125,1.4043c0.00429,0.54923 0.45075,0.9922 1,0.99219c0.23417,-0.00008 0.46088,-0.08233 0.64063,-0.23242l6.97852,3.23242l-9.74609,4.51563c-0.17585,-0.31761 -0.51001,-0.51497 -0.87305,-0.51562c-0.55228,0 -1,0.44772 -1,1c0.00059,0.12088 0.02309,0.24066 0.06641,0.35352l-0.54883,0.25391l-6.9668,3.22656c0.28026,-0.18494 0.449,-0.4982 0.44922,-0.83398c0,-0.55228 -0.44772,-1 -1,-1c-0.55228,0 -1,0.44772 -1,1c0,0.55228 0.44772,1 1,1c0.09588,-0.00002 0.19126,-0.01384 0.2832,-0.04102l-2.68359,1.24219c-0.17284,-0.13016 -0.38324,-0.20075 -0.59961,-0.20117c-0.52944,0.00012 -0.96703,0.41288 -0.99805,0.94141l-7.02148,3.25195c0.01277,-0.06367 0.01931,-0.12842 0.01953,-0.19336c0,-0.55228 -0.44772,-1 -1,-1c-0.55228,0 -1,0.44772 -1,1c0.00022,0.06493 0.00676,0.12969 0.01953,0.19336l-7.02344,-3.25391c-0.03197,-0.527 -0.46812,-0.93836 -0.99609,-0.93945c-0.21637,0.00042 -0.42677,0.07101 -0.59961,0.20117l-2.68164,-1.24219c0.09132,0.02699 0.18603,0.0408 0.28125,0.04102c0.55228,0 1,-0.44772 1,-1c0,-0.55228 -0.44772,-1 -1,-1c-0.55228,0 -1,0.44772 -1,1c0.00001,0.33435 0.16711,0.64657 0.44531,0.83203l-6.85352,-3.17578c-0.07812,-0.0506 -0.16292,-0.09004 -0.25195,-0.11719l-0.4043,-0.1875c0.04242,-0.11237 0.06426,-0.23145 0.06445,-0.35156c0,-0.55228 -0.44772,-1 -1,-1c-0.36263,0.00026 -0.69669,0.19682 -0.87305,0.51367l-9.74609,-4.51367l6.98047,-3.23242c0.17923,0.14966 0.40518,0.23189 0.63867,0.23242c0.54925,0.00002 0.99571,-0.44296 1,-0.99219zM13,38c-0.55228,0 -1,0.44772 -1,1c0,0.55228 0.44772,1 1,1c0.55228,0 1,-0.44772 1,-1c0,-0.55228 -0.44772,-1 -1,-1zM19,38c-0.55228,0 -1,0.44772 -1,1c0,0.55228 0.44772,1 1,1c0.55228,0 1,-0.44772 1,-1c0,-0.55228 -0.44772,-1 -1,-1zM25,38c-0.55228,0 -1,0.44772 -1,1c0,0.55228 0.44772,1 1,1c0.55228,0 1,-0.44772 1,-1c0,-0.55228 -0.44772,-1 -1,-1zM55,38c-0.55228,0 -1,0.44772 -1,1c0,0.55228 0.44772,1 1,1c0.55228,0 1,-0.44772 1,-1c0,-0.55228 -0.44772,-1 -1,-1zM61,38c-0.55228,0 -1,0.44772 -1,1c0,0.55228 0.44772,1 1,1c0.55228,0 1,-0.44772 1,-1c0,-0.55228 -0.44772,-1 -1,-1zM67,38c-0.55228,0 -1,0.44772 -1,1c0,0.55228 0.44772,1 1,1c0.55228,0 1,-0.44772 1,-1c0,-0.55228 -0.44772,-1 -1,-1zM16,41c-0.55228,0 -1,0.44772 -1,1c0,0.55228 0.44772,1 1,1c0.55228,0 1,-0.44772 1,-1c0,-0.55228 -0.44772,-1 -1,-1zM22,41c-0.55228,0 -1,0.44772 -1,1c0,0.55228 0.44772,1 1,1c0.55228,0 1,-0.44772 1,-1c0,-0.55228 -0.44772,-1 -1,-1zM28,41c-0.55228,0 -1,0.44772 -1,1c0,0.55228 0.44772,1 1,1c0.55228,0 1,-0.44772 1,-1c0,-0.55228 -0.44772,-1 -1,-1zM52,41c-0.55228,0 -1,0.44772 -1,1c0,0.55228 0.44772,1 1,1c0.55228,0 1,-0.44772 1,-1c0,-0.55228 -0.44772,-1 -1,-1zM58,41c-0.55228,0 -1,0.44772 -1,1c0,0.55228 0.44772,1 1,1c0.55228,0 1,-0.44772 1,-1c0,-0.55228 -0.44772,-1 -1,-1zM64,41c-0.55228,0 -1,0.44772 -1,1c0,0.55228 0.44772,1 1,1c0.55228,0 1,-0.44772 1,-1c0,-0.55228 -0.44772,-1 -1,-1zM25,44c-0.55228,0 -1,0.44772 -1,1c0,0.55228 0.44772,1 1,1c0.55228,0 1,-0.44772 1,-1c0,-0.55228 -0.44772,-1 -1,-1zM31,44c-0.55228,0 -1,0.44772 -1,1c0,0.55228 0.44772,1 1,1c0.55228,0 1,-0.44772 1,-1c0,-0.55228 -0.44772,-1 -1,-1zM37,44c-0.55228,0 -1,0.44772 -1,1c0,0.55228 0.44772,1 1,1c0.55228,0 1,-0.44772 1,-1c0,-0.55228 -0.44772,-1 -1,-1zM43,44c-0.55228,0 -1,0.44772 -1,1c0,0.55228 0.44772,1 1,1c0.55228,0 1,-0.44772 1,-1c0,-0.55228 -0.44772,-1 -1,-1zM49,44c-0.55228,0 -1,0.44772 -1,1c0,0.55228 0.44772,1 1,1c0.55228,0 1,-0.44772 1,-1c0,-0.55228 -0.44772,-1 -1,-1zM55,44c-0.55228,0 -1,0.44772 -1,1c0,0.55228 0.44772,1 1,1c0.55228,0 1,-0.44772 1,-1c0,-0.55228 -0.44772,-1 -1,-1zM34,47c-0.55228,0 -1,0.44772 -1,1c0,0.55228 0.44772,1 1,1c0.55228,0 1,-0.44772 1,-1c0,-0.55228 -0.44772,-1 -1,-1zM40,47c-0.55228,0 -1,0.44772 -1,1c0,0.55228 0.44772,1 1,1c0.55228,0 1,-0.44772 1,-1c0,-0.55228 -0.44772,-1 -1,-1zM46,47c-0.55228,0 -1,0.44772 -1,1c0,0.55228 0.44772,1 1,1c0.55228,0 1,-0.44772 1,-1c0,-0.55228 -0.44772,-1 -1,-1zM20.03125,47.60352l19.54883,9.05469c0.26638,0.12324 0.57346,0.12324 0.83984,0l19.54883,-9.05469l11.65039,5.39648l-31.61914,14.64844l-31.61914,-14.64844zM37,50c-0.55228,0 -1,0.44772 -1,1c0,0.55228 0.44772,1 1,1c0.55228,0 1,-0.44772 1,-1c0,-0.55228 -0.44772,-1 -1,-1zM43,50c-0.55228,0 -1,0.44772 -1,1c0,0.55228 0.44772,1 1,1c0.55228,0 1,-0.44772 1,-1c0,-0.55228 -0.44772,-1 -1,-1z"></path></g></g></svg>