<svg xmlns="http://www.w3.org/2000/svg" xmlns:xlink="http://www.w3.org/1999/xlink" viewBox="0,0,256,256" width="50px" height="50px" fill-rule="nonzero"><g fill="#ffffff" fill-rule="nonzero" stroke="none" stroke-width="1" stroke-linecap="butt" stroke-linejoin="miter" stroke-miterlimit="10" stroke-dasharray="" stroke-dashoffset="0" font-family="none" font-weight="none" font-size="none" text-anchor="none" style="mix-blend-mode: normal"><g transform="scale(5.12,5.12)"><path d="M35.0625,1.5c-0.22656,0.03125 -0.4375,0.14453 -0.59375,0.3125l-32.59375,32.59375c-0.38672,0.39063 -0.38672,1.01563 0,1.40625l12.21875,12.21875c0.1875,0.19531 0.44922,0.30469 0.71875,0.30469c0.26953,0 0.53125,-0.10937 0.71875,-0.30469l32.59375,-32.59375c0.38672,-0.39062 0.38672,-1.01562 0,-1.40625l-12.21875,-12.21875c-0.04687,-0.05859 -0.09766,-0.10937 -0.15625,-0.15625c-0.17578,-0.11328 -0.38281,-0.16797 -0.59375,-0.15625c-0.03125,0 -0.0625,0 -0.09375,0zM35.1875,3.9375l10.8125,10.8125l-31.1875,31.15625l-10.8125,-10.78125l2.84375,-2.84375l2.4375,2.4375l1.4375,-1.4375l-2.4375,-2.4375l2.5625,-2.5625l5.4375,5.4375l1.4375,-1.4375l-5.4375,-5.4375l2.5625,-2.5625l2.4375,2.4375l1.4375,-1.4375l-2.4375,-2.4375l2.5625,-2.5625l5.4375,5.4375l1.4375,-1.4375l-5.4375,-5.4375l2.5625,-2.5625l2.4375,2.4375l1.4375,-1.4375l-2.4375,-2.4375l2.5625,-2.5625l5.4375,5.4375l1.4375,-1.4375l-5.4375,-5.4375l2.5625,-2.5625l2.4375,2.4375l1.4375,-1.4375l-2.4375,-2.4375z"></path></g></g></svg>